# xmcd
#
# Track frame offsets:
#	150
#	18067
#	32170
#	49325
#	65455
#	82375
#	99245
#	115462
#	131595
#	145190
#
# Disc length: 2161 seconds
#
# Revision: 0
# Processed by: cddbd v1.4PL0 Copyright (c) Steve Scherf et al.
# Submitted via: audiograbber 1.81.02
#
DISCID=89086f0a
DTITLE=Michelle Wright - Now and Then
DYEAR=1992
DGENRE=Country
TTITLE0=Take It Like A Man
TTITLE1=If I'm Ever Over You
TTITLE2=Now and Then
TTITLE3=One Time Around
TTITLE4=He Would Be Sixteen
TTITLE5=The Change
TTITLE6=Don't Start With Me
TTITLE7=Guitar Talk
TTITLE8=Fastest Healing Wounded Heart
TTITLE9=A Little More Comfortable
EXTD=
EXTT0=
EXTT1=
EXTT2=
EXTT3=
EXTT4=
EXTT5=
EXTT6=
EXTT7=
EXTT8=
EXTT9=
PLAYORDER=
